<svg xmlns="http://www.w3.org/2000/svg" viewBox="0 0 1546.71 901.96"><defs><style>.cls-1{stroke:#7b7979;}.cls-1,.cls-2,.cls-3,.cls-4,.cls-5,.cls-6{stroke-miterlimit:10;stroke-width:0.25px;}.cls-2{fill:#b29f6b;}.cls-2,.cls-3,.cls-4,.cls-5,.cls-6{stroke:#000;}.cls-3{fill:#f99;}.cls-4{fill:#ccffd9;}.cls-5{fill:#8d7db2;}.cls-6{fill:#fff;}</style></defs><title>birdlogo</title><g id="Layer_1" data-name="Layer 1"><path class="cls-1" d="M49.37,92.34c54.71-1.94-.1-18.68,36.64-30.56,14.24-4.6,28.22-1.34,42.48.17,39.21,4.15,80.06,18.54,116.84,31.71C331.38,124.47,397,185.55,478.26,222c-22.36-58-84.55-124.39-24.33-174.63,8-6.64,30.81-19.94,42.85-26.73,16.76-9.44,32.67-10.88,52-8.85,38.33,4,78,22.71,103.53,51.52,8.32,9.39,14.81,26.25,24.64,30.54,25.68,11.21,13.55-3.88,35.79-2.32,44.51,3.12,82.11,33.4,120.59,53.83,79,42,144.85,101.58,212.22,159.7,5-21.27-14.9-54.68-16.84-76.67-3-33.86.28-79.77,29.92-102.23,46-34.89,111-60.08,168.65-30,120.87,63.05,197.7,218.68,257.88,335.31,56.81,110.1,170.25,336.26,51.49,445.11-51.88,47.55-154.49,43.21-214.35,15.51-58.39-27-126-88.09-154.6-146.44-27.2,13.23-23.88,50.33-58.56,55.06-43.89,6-40.39-20.37-38.54-57.86-33.95,22.18-70.66,69.5-115.87,68.44-26.25-.62-19.78-15.07-36.53-20.19s-36.69,14.42-44-12.78c-34.92,9.88-61.06,61.35-98.3,74.78-24.5,8.84-31.88,4.21-55.17-1.2a188.51,188.51,0,0,1-15.83-15.35,25.11,25.11,0,0,1-14.06,6.94c-18.41-6.85-23.77,2.25-30.63-20.78-4.66-15.67,18-53.64,20.88-69.2,7.28-38.7,5.25-91.13-12.72-126.5-21.2,37.75-6.28,70.11-18.86,104.89-10.88,30.08-53,72.34-74.78,94.53-29.61,30.21-45.41,29.47-82.62,17.78-19.26-6-19,.87-37-15.34-13.51-12.18-23.35-41.85-31-58.14-91.39,167.71-234.9-90.73-284-174.76C96.75,521.47,95,433.66,80.41,350.22,66.31,269.48,26.23,173,49.37,92.34Zm1120.17,18.51c-54.55,15.41-78.47,55.67-69.41,113.45,8.17,52.1,54.33,105-12.16,126.79,16.11,29.16,25.56,41.63,20,74.07-3,17.53-11.29,14-11.35,33.11-.07,21.8,17.49,48,26.63,66.85,18.89,38.94,30.51,59.85,17.88,103.36-5.14,17.71-21.75,34.79-25.33,51.49-5.45,25.43,1.1,35.75,10.54,62.39,30.32-48.16,45.59-71.33,92.6-25.91,47.77,46.15,87,95.07,146,128.2,44.47,25,95.13,39.95,139.75,5.55,51.71-39.86,39.37-117.82,27.47-173.55-12.35-57.83-39-101.47-60.58-155.31-22.22-55.54-39.51-108.65-71.84-159.84-36.91-58.45-78.19-121.54-123.3-174-15.72-18.28-33-41.12-55-52.09C1200.87,125.2,1182.69,130.41,1169.54,110.85ZM1061.79,404.27C1029,327.53,959.32,278.56,893.45,228c-38.79-29.77-157.25-123.5-200.13-83.22-27.42,25.76-34.73,61.15-30.09,94.18,2.26,16.06,9.37,22.56,6.65,41.39-.86,5.93-12.39,22.22-11.11,27.29,4.23,16.63,24,30.38,39.57,44.8,35.28,32.67,56.41,58.79,46.32,107.71-7.15,34.68-40.44,71.85-38.21,104.69,1.09,16.09,19.37,42.41,24.47,60.1,6.52,22.62,11,46.34,14.36,69.62,2.21,15.54,5.05,32.2,4,48-1.26,18.75-19.35,45.36-15.64,61.87,15.75,69.94,146-87.75,158.45-121.38,16.39-44.35,9.16-73.83,1.52-118.74-7.68-45.13,23.64-90,52.45-34.13,17.35,33.64-4.35,234.35,11.6,241,33.12,13.81,104.44-81.37,118.71-100.85,24.72-33.76,42-57.65,27.66-98.72-12.3-35.28-34.49-75.24-52.86-104.47-7.1-11.29-18.67-8.57-17.23-23.69,1-10.25,31.59-30.3,29.77-32.26-4.33-4.69-13,4.85-18.89-8.11ZM119,98c-10.55,28.94,8.06,87.55,11.87,116.26,5.53,41.71,9.24,83.07,13.18,125,6.3,67.06,3,139.47,31.68,201,31.23,67.08,73,128,114.76,188.91,13,19,46.42,79.77,76.39,72.46,28.36-6.91,34.44-70.56,39.57-93.48,17.14-76.67,32.24-150.6,39.68-228.82,2.7-28.44-13-90.91,2-114,13.93-21.45,38.38-20.93,39.68-51.22,2.73-63.78-106.34-112.87-156.56-140.7C262.76,135.46,195.22,114,119,98Zm520.91,253.5C617.63,452.93,513.56,493.91,470.72,581.29c-18.53,37.79-17.49,70.36-5.18,107.73,8.41,25.55,26.27,129.13,62.71,131.51,13.71.9,71.41-75.56,77.62-86.73,22.6-40.62,16.91-92,40.27-140.29,21.43-44.27,51.37-85.87,60.83-135.16C714.31,420.15,680,363.1,639.92,351.52ZM530.06,322.35c31.87,5.89,101.45-21.24,103.35-56.53,1.24-23.05-16.5-49-24.45-69.78-4.61-12.07-21.35-34-16.32-48.59,7-20.27,21.08-12,31.64-23.22,13.94-14.75,18.94,16.88,14.47-22.95-1.08-9.66-13.39-18.9-19.46-25.25C558.16,12.09,463.08,31,488.8,131.76c8.95,35,49.29,67.18,45.45,105.52-1.45,14.45-17.11,24.14-18.26,34.57C514.61,284.23,527.48,308.72,530.06,322.35ZM577.94,364c-16.16,0-86,5.17-96.54,16.14-2.3,2.41-6.14,96.55-2.69,107.83C503.16,474.92,580.81,393.69,577.94,364ZM310.08,774.36q-5.14,4,4,6.69Q318.26,777.58,310.08,774.36ZM144.74,508c-.21,4,1.19,4.91,4.91,3Zm579.1-121.71M335.12,796.6m304-98.33-378,9.06" transform="translate(-42.2 -10.83)"/><path class="cls-2" d="M1169.54,110.85c13.57,20.2,22,10.4,44,19.25,24.26,9.77,46.56,38.29,62.9,57.4,44.9,52.51,86.21,115.76,123.3,174,34,53.38,50.34,110.16,75.33,167.28,19.26,44,42.78,82.14,54,129.85,12.94,55.06,29.92,137.2-14,184-35.74,38.11-90.13,31.42-132.22,11.37-64-30.48-108.19-80.34-156.74-130-49.2-50.33-65.35-36.33-99.77,18.34-20.31-57.27-21.05-47.72-1.4-101.5,16.62-45.48,11.86-70-8.34-111.68-17.62-36.31-27-51.35-20.67-87.13,6.39-36.23,13-53.1-7.91-91,66.39-21.75,20.39-74.34,12.16-126.79C1091.18,167.19,1114.93,126.27,1169.54,110.85ZM1243,524.14c-1.63,14-13.88,31.46-11.55,46.59,2,12.9,27.58,58.46,46.31,54.87C1313.39,618.77,1256.57,517.61,1243,524.14Z" transform="translate(-42.2 -10.83)"/><path class="cls-3" d="M1061.79,404.27l-17-1.23c5.92,13,14.57,3.43,18.89,8.11-.8-.87-25.46,21.9-21,37.76,3.38,11.92,14.11,22.91,21.41,34.4,10.22,16.09,23.37,37.19,32.08,54.74,14.53,29.29,20.53,51.48,10.48,84.12-11.92,38.74-46.07,89.22-76.55,114.09-8.67,7.07-55.81,43.5-66.07,39.33-15.49-6.3-13.56-11.36-15.73-31.46-4.88-45.29,9.1-97.19,4.87-143.15-2.21-24-11.16-87-31.09-87.56s-17.54,80.23-16.77,104.38c2.35,74.06-60.38,176.81-130,203.66-55.24,21.29-47-26.59-40.9-59,7.59-40,9-90.43-1.19-129-11.46-43.55-36.76-57.17-25.25-95.91S754.25,464,746.71,421c-8.94-51-74.78-61.84-93.37-102.68-8.14-17.89,8-36.79,5.59-61.46-2-20.79-2-33.47,2.13-54.11,6.41-32.42,37-78.35,72.62-71.08,36.51,7.44,91.68,50.5,123.45,70.51C935.28,251.41,1025.57,319.37,1061.79,404.27ZM876.73,442c52.17-22.73-8.1-72.26-23.61-58.67C839.58,395.22,872.41,434.11,876.73,442Z" transform="translate(-42.2 -10.83)"/><path class="cls-4" d="M119,98C195.24,114,262.69,135.45,331.24,173.4c50.44,27.93,158.63,76.33,156.56,140.7-.8,24.85-26.55,32.32-36.65,49.42-16,27.07-.84,69.29-4,103.34-7.56,82.57-22.55,160.41-40.74,241.26-5.35,23.78-10.39,87.92-39.57,93.48-28.18,5.37-56.4-43.25-69.13-61.59-44.36-63.93-89.1-129.07-122-199.78-28.56-61.35-25.4-134-31.68-201-3.68-39.25-7.1-78.07-12.28-117.14C127.89,192.81,108.42,127.08,119,98ZM321.62,464.39c-14.68,9.78-40.52,38.14-13.67,57.29C337.14,542.5,350.21,471.67,321.62,464.39ZM289,364.09c4.64,21.33,29.19,31.64,35.39,2.83C328.46,348.08,290.26,320,289,364.09Z" transform="translate(-42.2 -10.83)"/><path class="cls-5" d="M639.92,351.52c40,11.59,74.39,68.63,67.06,106.83-9.45,49.28-39.4,90.89-60.83,135.16-23.36,48.26-17.67,99.68-40.27,140.29C599.67,745,542,821.42,528.26,820.52c-36.44-2.38-54.3-106-62.71-131.51-12.31-37.37-13.35-69.93,5.18-107.73C513.56,493.91,617.63,452.93,639.92,351.52Z" transform="translate(-42.2 -10.83)"/><path class="cls-5" d="M530.06,322.35c-2.38-12.56-14.45-37.05-13.63-48.12.89-12,16.26-21.4,17.82-36.94,3.88-38.58-36.38-70-45.45-105.52-9.43-36.93-9.11-86.51,35-94.47,30.75-5.55,77.43,11,98.17,32.78,17.32,18.16,32.35,42.76,17.22,58.71-8.93,9.42-30.38-1.69-38.16,16.84-7.47,17.8,2,34.94,7.88,50.41,7.65,20,25.66,47.24,24.45,69.78C631.4,303.09,562.31,328.3,530.06,322.35Z" transform="translate(-42.2 -10.83)"/><path class="cls-6" d="M310.08,774.36q8.18,3.21,4,6.69Q304.95,778.37,310.08,774.36Z" transform="translate(-42.2 -10.83)"/><path class="cls-6" d="M144.74,508l4.91,3C145.94,512.93,144.53,512,144.74,508Z" transform="translate(-42.2 -10.83)"/><path class="cls-6" d="M723.84,386.31" transform="translate(-42.2 -10.83)"/><path class="cls-6" d="M335.12,796.6" transform="translate(-42.2 -10.83)"/><path class="cls-6" d="M639.12,698.27" transform="translate(-42.2 -10.83)"/><path class="cls-6" d="M261.16,707.34" transform="translate(-42.2 -10.83)"/><path d="M1243,524.14c13.31-6.42,70.22,94.79,34.76,101.45-18.31,3.44-44.47-42.91-46.31-54.87C1229,554.51,1241.35,538.66,1243,524.14Z" transform="translate(-42.2 -10.83)"/><path d="M876.73,442c-4.32-7.92-37.15-46.8-23.61-58.67C868.63,369.77,928.9,419.29,876.73,442Z" transform="translate(-42.2 -10.83)"/><path d="M321.62,464.39c28.6,7.28,15.52,78.11-13.67,57.29C281.1,502.54,306.94,474.17,321.62,464.39Z" transform="translate(-42.2 -10.83)"/><path d="M289,364.09c1.26-44.22,39.16-14.72,35.39,2.83C318.46,394.57,293.92,386.64,289,364.09Z" transform="translate(-42.2 -10.83)"/></g></svg>