<?xml version="1.0" encoding="utf-8"?>
<!-- Generator: Adobe Illustrator 21.1.0, SVG Export Plug-In . SVG Version: 6.00 Build 0)  -->
<svg version="1.1" id="Layer_1" xmlns="http://www.w3.org/2000/svg" xmlns:xlink="http://www.w3.org/1999/xlink" x="0px" y="0px"
	 viewBox="0 0 369.9 119.8" style="enable-background:new 0 0 369.9 119.8;" xml:space="preserve">
<style type="text/css">
	.st0{fill:#C1272D;}
	.st1{fill:#FFFFFF;}
</style>
<title>newbirdlogo</title>
<path class="st0" d="M297.9,89.6c-10.3,0-16.4-7.7-16.4-17.6c0-10.7,6.5-19.8,18.8-19.8c12.6,0,18,10.9,18,17.4
	c0,5.2-2.4,10.2-6.9,15.1C307.6,87.8,302.8,89.6,297.9,89.6z"/>
<path class="st1" d="M98.4,92.4c-4.3,8.9-8.2,11.4-26.7,11.4c-12.8,0-36.1-0.3-70.4-0.5c-0.5-0.8-0.8-1.7-0.8-2.7
	c0.2-1.4,0.3-2.8,0.3-4.2c0-2.7-1-11.7-1-14.1c0-5.5,0.2-9.4,8.4-9.4c9.9,0,8.7-0.2,9.6-2.5c0.5-3.6,0.8-7.3,0.8-10.9
	c0-1.3-0.6-9.4-1.7-24.3c-0.5-0.6-1.1-1.2-1.7-1.7c-0.2,0-4.4,0.2-12.5,0.7c-0.6-0.2-1.1-0.7-1.3-1.3c0.1-1.8,0.2-3.7,0.2-5.5
	c0-3-0.2-7-0.2-11.7c0-6.2,0-12.7,3.2-13.2c1.7,0,10.7-1.7,16.6-1.7c4.7,0,9.6,0.7,15.3,0.7C42.6,1.3,64,0,72.4,0
	C77-0.1,81.5,0.4,86,1.4c12.1,3,15.5,21.5,15.5,28.8c0,8.2-2.8,14.2-11.7,18.8c0.3,3.2,6.9,5.9,7.6,7c4.6,4.7,6.8,10.7,6.8,17.9
	c0,2.5-0.3,5.1-1,7.5C100.2,88.7,98.6,92.2,98.4,92.4z M70.5,38.1c0-4.2-4.4-6.7-9.8-6.9c0,1.3-13.7-2-13.7,5.4c0.3,2,0.5,4,0.6,6
	c0,0.5,0,1-0.2,1.5l1.1,1.3c13.7-0.5,16.9-1.2,21.3-5C70.3,39.7,70.6,38.9,70.5,38.1z M72.7,67.2c0-6.7-18.3-7.7-20.5-7.7
	c-3.3,0-4.3,1.7-4.3,5.5c0,5.2,0,7.7,0.2,7.7v-0.2c0.5,0.8,1,1.3,1.1,1.3c4.3,0,18.6,0.7,23-4.4C72.5,68.8,72.7,68,72.7,67.2z"/>
<path class="st1" d="M149.5,91.1c0,1.7,0.2,3.5,0.2,5.7v5.7c0,6.9-0.2,17.3-1.7,17.3c-2.2,0-21.1-1.3-25.1-1.5
	c-23.8-0.7-27,1.2-27-5c0.3-3.9,0.5-7.4,0.5-10.4c0-3.7-0.2-7.4-0.8-11.1c0.8-1.5,2.4-2.3,4.9-2.3h3c4.6,0,5.5-1.2,5.5-7.2
	c0-3.2-0.2-7.7-0.3-13.6c-2.8-4.2-11.5,1.3-11.5-7.9c0-1.8,0-14.4,2.7-14.9c2,0,4.4,0.2,7.3,0.2c4.3,0,11.4-0.3,16.4-0.3h4.9
	c3.3,0,5.8,0.2,6.9,1.7v14.1c0,12.7,0.2,21.5,0.5,26.3c2.4,1.3,12.1,1.8,12.8,2L149.5,91.1z M126.1,41.6c-8.4,0-15-3.7-19.9-10.9
	v-1.5c0-6.9,4.7-18.3,17.8-18.3c10.7,0,15.1,9.4,15.1,16.8c0,1.3-0.2,2.7-0.5,4C135.1,39.3,131.7,41.6,126.1,41.6z"/>
<path class="st1" d="M203.3,46.6c-7.1,0-10.9-5-11.5-15.9c-0.7-1-1.9-1.6-3.2-1.5c-6.9,0-10.4,8.9-10.4,18.5c0,1.8,0.5,7.4,1.4,16.4
	c1,0.9,2.3,1.4,3.6,1.3c1.1,0,3.8-0.3,4.9-0.3c1.1,0,2.2,0.3,3.2,0.8c0.5,2.5,0.9,10.9,1.4,25.2c-1.3,1.3-3.1,2-4.9,1.8
	c-2.2,0-4.7-0.3-7.1-0.5c-9.1-0.5-17.2-0.7-24.1-0.7c-6.1,0-11.2,0.2-15.5,0.5c-1.7-1.8-2-10.4-2-17.3v-9.1c1.9-3,12.1-1.5,13.7-5.5
	c0-6.7-0.5-13.4-1.3-20.1c-0.6-1.2-1.9-1.8-3.9-1.8H145c-4.4,0-4.4-5-4.4-10.6c0-17.6,0.3-14.1,2.4-14.8c2.5,0,14.5-0.8,22.9-0.8
	c3.2,0,6.3-0.8,6.9,3.2c0.3,1.7,0.8,2.7,1.6,3c7.7-5.2,14-7.9,18.8-7.9c16.6,0,23.7,13.8,23.7,22C216.3,40.9,210.9,46.6,203.3,46.6z
	"/>
<path class="st1" d="M291.1,108.5c-0.2,0-12.2,0.5-35.8,1.3c-2.7-0.7-1.7-7.4-4.6-7.4c-0.3,0-0.7,0-1,0.2
	c-5.5,5.2-12.6,7.7-21.3,7.7c-22.4,0-33-15.1-33-34.9c0-22.6,14-41.2,36-41.2c5.5,0,9.9,2,20.2,5.2c1.2-1,1.8-2.6,1.7-4.2
	c0-4.2-2.5-5.7-6.6-5.7c-1.4,0-5.5,0.5-7.3,0.5c-4.9,0-3.9-3.2-3.9-6.2c0-5,0.2-11.6,0.8-19.5h3.9c5.8,0,27.9-1.8,31.5-1.8
	c3.5,0,5.4,1.8,5.5,4.7c-0.5,6.5-0.6,13.8-0.6,21.6c0,0,0.5,15.8,1.3,47.6c1.7,4.5,14.2,1.5,14.7,7.9c0.5,6.7,1,12.4,1,16.9
	c0,2.2-0.2,4.2-0.3,6C292.7,108,292,108.4,291.1,108.5z M234.3,61.7c-7.6,0-12.9,5-12.9,11.4c0,4.9,4.3,10.2,12.8,10.2
	c6.6,0,14.7-2.7,14.7-12.1c0-0.7,0-1.5-0.2-2.2C247,62.6,238.8,61.7,234.3,61.7L234.3,61.7z"/>
<path class="st0" d="M297.9,89.6c-10.3,0-16.4-7.7-16.4-17.6c0-10.7,6.5-19.8,18.8-19.8c12.6,0,18,10.9,18,17.4
	c0,5.2-2.4,10.2-6.9,15.1C307.6,87.8,302.8,89.6,297.9,89.6z"/>
</svg>
